<?xml version="1.0" standalone="no"?>
<!DOCTYPE svg PUBLIC "-//W3C//DTD SVG 20010904//EN"
 "http://www.w3.org/TR/2001/REC-SVG-20010904/DTD/svg10.dtd">
<svg version="1.0" xmlns="http://www.w3.org/2000/svg"
 width="1024.000000pt" height="1024.000000pt" viewBox="0 0 1024.000000 1024.000000"
 preserveAspectRatio="xMidYMid meet">
<metadata>
Created by potrace 1.11, written by Peter Selinger 2001-2013
</metadata>
<g transform="translate(0.000000,1024.000000) scale(0.100000,-0.100000)"
fill="#000000" stroke="none">
<path d="M3941 7938 c-5 -13 -34 -90 -66 -173 -31 -82 -61 -159 -66 -170 -5
-11 -25 -63 -44 -115 -19 -52 -39 -104 -44 -115 -14 -30 -231 -597 -236 -615
-3 -13 -127 -334 -215 -560 -29 -75 -550 -1434 -680 -1773 -37 -97 -65 -179
-61 -180 10 -6 1009 -2 1014 3 2 3 59 143 127 313 l124 307 675 -2 675 -3 2
-30 c6 -125 51 -293 101 -385 122 -220 302 -343 673 -460 91 -29 174 -56 185
-60 11 -5 88 -30 170 -56 83 -26 161 -53 175 -59 173 -84 215 -117 251 -199
17 -38 23 -70 23 -126 -1 -95 -27 -154 -104 -231 -86 -87 -202 -123 -387 -121
-96 2 -257 32 -351 68 -68 25 -219 103 -258 133 -12 9 -32 23 -45 31 -31 21
-152 120 -165 136 -9 11 -14 8 -25 -14 -7 -15 -41 -79 -75 -142 -33 -63 -85
-160 -114 -215 -29 -55 -73 -138 -98 -185 -24 -47 -60 -114 -79 -149 -19 -35
-31 -66 -26 -70 298 -218 701 -369 1083 -406 63 -6 343 -6 410 0 41 4 62 6
170 21 19 3 78 16 130 29 540 134 880 526 938 1080 9 84 8 295 -2 355 -34 210
-119 381 -253 513 -170 167 -377 266 -853 407 -310 92 -409 148 -449 256 -26
69 -27 129 -1 196 35 93 121 165 242 203 56 18 88 21 165 19 197 -6 350 -60
548 -194 42 -28 78 -50 80 -48 3 3 177 344 299 584 42 83 76 155 76 160 0 16
-243 124 -400 177 -172 58 -350 98 -507 114 -101 10 -390 10 -468 0 -149 -20
-298 -63 -408 -118 -33 -16 -63 -26 -67 -22 -4 4 -15 28 -24 53 -21 53 -373
988 -392 1040 -7 19 -36 96 -64 170 -28 74 -94 251 -148 393 l-96 257 -528 0
-528 0 -9 -22z m611 -1371 c38 -111 87 -251 108 -312 21 -60 79 -228 129 -373
49 -144 93 -267 96 -272 3 -6 3 -10 -2 -11 -11 -1 -783 -1 -804 0 -14 1 0 50
77 279 52 152 142 421 202 598 71 214 110 316 115 307 5 -8 40 -105 79 -216z"/>
</g>
</svg>
