<svg width="48" height="39" viewBox="0 0 48 39" fill="none" xmlns="http://www.w3.org/2000/svg"><path fill-rule="evenodd" clip-rule="evenodd" d="M3.235 16.79c12.633-5.505 21.056-9.133 25.271-10.886C40.54.899 43.041.029 44.671 0c.358-.006 1.16.083 1.679.504.438.356.559.836.617 1.174.057.337.13 1.105.072 1.706-.652 6.851-3.474 23.48-4.91 31.154-.607 3.247-1.803 4.336-2.96 4.443-2.517.231-4.428-1.663-6.865-3.261-3.814-2.5-5.969-4.056-9.671-6.496-4.278-2.82-1.505-4.369.933-6.901.638-.663 11.726-10.748 11.94-11.663.027-.114.052-.54-.201-.766-.253-.225-.627-.148-.897-.087-.383.087-6.476 4.114-18.279 12.081-1.729 1.188-3.295 1.766-4.699 1.736-1.547-.033-4.523-.875-6.736-1.594-2.714-.882-4.87-1.349-4.683-2.847.098-.78 1.173-1.578 3.224-2.394z" fill="url(#paint0_linear)"/><defs><linearGradient id="paint0_linear" x1="0" y1="21.589" x2="47.06" y2="21.589" gradientUnits="userSpaceOnUse"><stop stop-color="#D9A7C7"/><stop offset="1" stop-color="#FFFCDC"/></linearGradient></defs></svg>