<?xml version="1.0" encoding="utf-8"?><svg width="39" height="39" fill="none" xmlns="http://www.w3.org/2000/svg" viewBox="0 0 39 39"><path d="M19.5 0C8.733 0 0 8.731 0 19.5c0 8.616 5.587 15.925 13.336 18.504.974.18 1.289-.424 1.289-.938v-3.63c-5.424 1.18-6.554-2.301-6.554-2.301-.887-2.254-2.166-2.854-2.166-2.854-1.77-1.21.135-1.184.135-1.184 1.958.136 2.988 2.01 2.988 2.01 1.74 2.98 4.562 2.119 5.675 1.62.174-1.26.68-2.12 1.238-2.606-4.33-.496-8.884-2.168-8.884-9.638 0-2.13.762-3.87 2.009-5.234-.202-.493-.87-2.477.19-5.161 0 0 1.638-.524 5.364 1.998a18.7 18.7 0 014.88-.656c1.657.008 3.326.224 4.885.656 3.723-2.522 5.357-1.998 5.357-1.998 1.061 2.686.394 4.67.192 5.16 1.251 1.366 2.007 3.106 2.007 5.235 0 7.49-4.561 9.139-8.903 9.621.698.605 1.337 1.791 1.337 3.611v5.351c0 .519.312 1.128 1.302.936C33.42 35.42 39 28.112 39 19.5 39 8.731 30.269 0 19.5 0z" fill="url(#apaint0_linear)"/><defs><linearGradient id="apaint0_linear" x1="0" y1="22.73" x2="39" y2="22.73" gradientUnits="userSpaceOnUse"><stop id="astart" stop-color="#C33764"/><stop id="aend" offset="1" stop-color="#1D2671"/></linearGradient></defs></svg>