<?xml version="1.0" encoding="utf-8"?><svg width="66" height="39" fill="none" xmlns="http://www.w3.org/2000/svg" viewBox="0 0 66 39"><path fill-rule="evenodd" clip-rule="evenodd" d="M63.982 2.706c.486-1.526 0-2.637-2.151-2.637h-7.148c-1.804 0-2.637.972-3.123 2.013 0 0-3.677 8.882-8.813 14.642-1.665 1.666-2.428 2.22-3.33 2.22-.486 0-1.111-.554-1.111-2.081V2.637C38.306.833 37.751 0 36.224 0H24.982c-1.11 0-1.804.833-1.804 1.665 0 1.735 2.568 2.152 2.845 7.01v10.547c0 2.29-.416 2.707-1.318 2.707-2.43 0-8.328-8.952-11.867-19.153C12.144.763 11.45 0 9.646 0H2.429C.347 0 0 .972 0 2.012c0 1.874 2.429 11.312 11.311 23.803C17.21 34.35 25.607 38.93 33.171 38.93c4.58 0 5.135-1.041 5.135-2.776V29.7c0-2.082.416-2.429 1.874-2.429 1.04 0 2.914.555 7.147 4.65C52.185 36.779 53.017 39 55.724 39h7.148c2.082 0 3.053-1.04 2.498-3.053-.624-2.013-2.984-4.927-6.037-8.397-1.666-1.943-4.164-4.095-4.927-5.135-1.041-1.388-.764-1.944 0-3.193-.07 0 8.674-12.352 9.576-16.516z" fill="url(#fpaint0_linear)"/><defs><linearGradient id="fpaint0_linear" x1="0" y1="21.589" x2="65.524" y2="21.589" gradientUnits="userSpaceOnUse"><stop stop-color="#D9A7C7"/><stop offset="1" stop-color="#FFFCDC"/></linearGradient></defs></svg>