<?xml version="1.0" encoding="utf-8"?><svg width="66" height="39" fill="none" xmlns="http://www.w3.org/2000/svg" viewBox="0 0 66 39"><path fill-rule="evenodd" clip-rule="evenodd" d="M64.447 2.706c.49-1.526 0-2.637-2.167-2.637h-7.2c-1.817 0-2.656.972-3.145 2.013 0 0-3.705 8.882-8.877 14.642-1.678 1.666-2.447 2.22-3.355 2.22-.49 0-1.119-.554-1.119-2.081V2.637C38.584.833 38.025 0 36.487 0H25.164c-1.119 0-1.818.833-1.818 1.665 0 1.735 2.587 2.152 2.866 7.01v10.547c0 2.29-.42 2.707-1.328 2.707-2.446 0-8.388-8.952-11.953-19.153C12.232.763 11.533 0 9.716 0h-7.27C.35 0 0 .972 0 2.012c0 1.874 2.446 11.312 11.393 23.803 5.942 8.535 14.4 13.116 22.019 13.116 4.613 0 5.172-1.041 5.172-2.776V29.7c0-2.082.42-2.429 1.887-2.429 1.049 0 2.936.555 7.2 4.65C52.564 36.779 53.403 39 56.13 39h7.2c2.096 0 3.075-1.04 2.516-3.053-.63-2.013-3.006-4.927-6.081-8.397-1.678-1.943-4.194-4.095-4.963-5.135-1.049-1.388-.77-1.944 0-3.193-.07 0 8.737-12.352 9.646-16.516z" fill="url(#epaint0_linear)"/><defs><linearGradient id="epaint0_linear" x1="0" y1="23.305" x2="66" y2="23.305" gradientUnits="userSpaceOnUse"><stop id="estart" stop-color="#C33764"/><stop id="eend" offset="1" stop-color="#1D2671"/></linearGradient></defs></svg>