<svg width="37" height="35" viewBox="0 0 37 35" fill="none" xmlns="http://www.w3.org/2000/svg">
    <path d="M18.4668 8.7402C13.3916 8.7402 9.29793 12.6478 9.29793 17.4923C9.29793 22.3369 13.3916 26.2445 18.4668 26.2445C23.5421 26.2445 27.6358 22.3369 27.6358 17.4923C27.6358 12.6478 23.5421 8.7402 18.4668 8.7402ZM18.4668 23.1824C15.1871 23.1824 12.5058 20.6306 12.5058 17.4923C12.5058 14.3541 15.1791 11.8023 18.4668 11.8023C21.7546 11.8023 24.4278 14.3541 24.4278 17.4923C24.4278 20.6306 21.7466 23.1824 18.4668 23.1824V23.1824ZM30.1494 8.38219C30.1494 9.51715 29.1918 10.4236 28.0108 10.4236C26.8218 10.4236 25.8722 9.50953 25.8722 8.38219C25.8722 7.25485 26.8298 6.34078 28.0108 6.34078C29.1918 6.34078 30.1494 7.25485 30.1494 8.38219ZM36.2221 10.4541C36.0865 7.71949 35.4321 5.29723 33.3334 3.30153C31.2427 1.30582 28.7051 0.681213 25.8403 0.544104C22.8877 0.384143 14.038 0.384143 11.0854 0.544104C8.22862 0.673596 5.69101 1.29821 3.59229 3.29391C1.49358 5.28961 0.847203 7.71188 0.703564 10.4464C0.535986 13.2648 0.535986 21.7123 0.703564 24.5306C0.839223 27.2652 1.49358 29.6875 3.59229 31.6832C5.69101 33.6789 8.22064 34.3035 11.0854 34.4406C14.038 34.6005 22.8877 34.6005 25.8403 34.4406C28.7051 34.3111 31.2427 33.6865 33.3334 31.6832C35.4241 29.6875 36.0785 27.2652 36.2221 24.5306C36.3897 21.7123 36.3897 13.2724 36.2221 10.4541V10.4541ZM32.4077 27.5546C31.7853 29.0476 30.5803 30.1978 29.0083 30.7996C26.6542 31.6908 21.0683 31.4851 18.4668 31.4851C15.8654 31.4851 10.2715 31.6832 7.92538 30.7996C6.36132 30.2054 5.15635 29.0552 4.52594 27.5546C3.59229 25.3076 3.80775 19.9755 3.80775 17.4923C3.80775 15.0091 3.60027 9.66949 4.52594 7.43004C5.14837 5.93707 6.35334 4.78688 7.92538 4.18512C10.2795 3.29391 15.8654 3.49957 18.4668 3.49957C21.0683 3.49957 26.6622 3.30153 29.0083 4.18512C30.5724 4.77926 31.7773 5.92946 32.4077 7.43004C33.3414 9.67711 33.1259 15.0091 33.1259 17.4923C33.1259 19.9755 33.3414 25.3152 32.4077 27.5546Z"
          fill="url(#paint0_linear)"/>
    <defs>
        <linearGradient id="paint0_linear" x1="0.577881" y1="20.8227" x2="36.3478" y2="20.8227"
                        gradientUnits="userSpaceOnUse">
            <stop stop-color="#C33764"/>
            <stop offset="1" stop-color="#1D2671"/>
        </linearGradient>
    </defs>
</svg>
