<svg width="48" height="39" viewBox="0 0 48 39" fill="none" xmlns="http://www.w3.org/2000/svg">
	<path fill-rule="evenodd" clip-rule="evenodd" d="M3.23513 16.7892C15.8677 11.2854 24.2914 7.657 28.5062 5.90392C40.5403 0.89851 43.0409 0.0290173 44.6707 0.000306125C45.0292 -0.00600858 45.8307 0.0828308 46.3499 0.504114C46.7883 0.859838 46.9089 1.34037 46.9666 1.67763C47.0243 2.0149 47.0962 2.7832 47.0391 3.38353C46.3869 10.2355 43.5652 26.8636 42.1296 34.538C41.5222 37.7853 40.3261 38.8741 39.1682 38.9807C36.6517 39.2122 34.7409 37.3176 32.3036 35.72C28.4897 33.2199 26.3351 31.6636 22.633 29.224C18.3547 26.4046 21.1281 24.8551 23.5664 22.3226C24.2044 21.6599 35.292 11.5749 35.5066 10.66C35.5334 10.5456 35.5583 10.1191 35.3049 9.8939C35.0516 9.6687 34.6776 9.74571 34.4077 9.80696C34.0252 9.89377 27.9325 13.9209 16.1295 21.8882C14.4001 23.0758 12.8336 23.6544 11.4302 23.624C9.88294 23.5906 6.90671 22.7492 4.69418 22.03C1.98043 21.1479 -0.176411 20.6815 0.0114007 19.1833C0.109225 18.403 1.1838 17.605 3.23513 16.7892Z" fill="url(#paint0_linear)" />
	<defs>
		<linearGradient id="paint0_linear" x1="0" y1="23.3049" x2="47.06" y2="23.3049" gradientUnits="userSpaceOnUse">
			<stop id="start" stop-color="#C33764" />
			<stop id="end" offset="1" stop-color="#1D2671" />
		</linearGradient>
	</defs>
</svg>
