<svg width="66" height="39" viewBox="0 0 66 39" fill="none" xmlns="http://www.w3.org/2000/svg">
<path fill-rule="evenodd" clip-rule="evenodd" d="M63.9822 2.7064C64.468 1.17971 63.9822 0.069394 61.831 0.069394H54.6833C52.879 0.069394 52.0463 1.04093 51.5605 2.08185C51.5605 2.08185 47.8826 10.9644 42.7473 16.7242C41.0819 18.3897 40.3185 18.9448 39.4164 18.9448C38.9306 18.9448 38.306 18.3897 38.306 16.863V2.63701C38.306 0.832737 37.7509 0 36.2242 0H24.9822C23.8719 0 23.1779 0.832736 23.1779 1.66548C23.1779 3.40035 25.7456 3.81673 26.0231 8.67438V19.2224C26.0231 21.5125 25.6068 21.9288 24.7046 21.9288C22.2758 21.9288 16.3772 12.9769 12.8381 2.7758C12.1441 0.763345 11.4502 0 9.64591 0H2.42883C0.346975 0 0 0.971526 0 2.01245C0 3.88612 2.42883 13.3238 11.3114 25.8149C17.21 34.3505 25.6068 38.9306 33.1708 38.9306C37.7509 38.9306 38.306 37.8897 38.306 36.1548V29.7011C38.306 27.6192 38.7224 27.2722 40.1797 27.2722C41.2206 27.2722 43.0943 27.8274 47.3274 31.9217C52.1851 36.7794 53.0178 39 55.7242 39H62.8719C64.9537 39 65.9253 37.9591 65.3701 35.9466C64.7456 33.9342 62.3861 31.0196 59.3327 27.5498C57.6673 25.6068 55.169 23.4555 54.4057 22.4146C53.3648 21.0267 53.6424 20.4715 54.4057 19.2224C54.3363 19.2224 63.0801 6.8701 63.9822 2.7064Z" fill="url(#paint0_linear)"/>
<defs>
<linearGradient id="paint0_linear" x1="0" y1="21.5893" x2="65.5241" y2="21.5893" gradientUnits="userSpaceOnUse">
<stop stop-color="#D9A7C7"/>
<stop offset="1" stop-color="#FFFCDC"/>
</linearGradient>
</defs>
</svg>
