<svg width="66" height="39" viewBox="0 0 66 39" fill="none" xmlns="http://www.w3.org/2000/svg">
	<path fill-rule="evenodd" clip-rule="evenodd" d="M64.4469 2.7064C64.9362 1.17971 64.4469 0.069394 62.28 0.069394H55.0804C53.2631 0.069394 52.4243 1.04093 51.935 2.08185C51.935 2.08185 48.2303 10.9644 43.0578 16.7242C41.3802 18.3897 40.6113 18.9448 39.7026 18.9448C39.2134 18.9448 38.5843 18.3897 38.5843 16.863V2.63701C38.5843 0.832737 38.0251 0 36.4873 0H25.1636C24.0453 0 23.3463 0.832736 23.3463 1.66548C23.3463 3.40035 25.9325 3.81673 26.2121 8.67438V19.2224C26.2121 21.5125 25.7927 21.9288 24.8841 21.9288C22.4376 21.9288 16.4962 12.9769 12.9313 2.7758C12.2323 0.763345 11.5333 0 9.71596 0H2.44647C0.349495 0 0 0.971526 0 2.01245C0 3.88612 2.44647 13.3238 11.3935 25.8149C17.335 34.3505 25.7927 38.9306 33.4117 38.9306C38.0251 38.9306 38.5843 37.8897 38.5843 36.1548V29.7011C38.5843 27.6192 39.0037 27.2722 40.4715 27.2722C41.52 27.2722 43.4073 27.8274 47.6711 31.9217C52.5641 36.7794 53.4029 39 56.1289 39H63.3285C65.4255 39 66.4041 37.9591 65.8449 35.9466C65.2158 33.9342 62.8392 31.0196 59.7637 27.5498C58.0861 25.6068 55.5697 23.4555 54.8008 22.4146C53.7523 21.0267 54.0319 20.4715 54.8008 19.2224C54.7309 19.2224 63.5382 6.8701 64.4469 2.7064Z" fill="url(#paint0_linear)" />
	<defs>
		<linearGradient id="paint0_linear" x1="0" y1="23.3049" x2="66" y2="23.3049" gradientUnits="userSpaceOnUse">
			<stop id="start" stop-color="#C33764" />
			<stop id="end" offset="1" stop-color="#1D2671" />
		</linearGradient>
	</defs>
</svg>
