<?xml version="1.0" encoding="utf-8"?><svg viewBox="0 0 66 39" xmlns="http://www.w3.org/2000/svg" xmlns:xlink="http://www.w3.org/1999/xlink"><style>:root>svg{display:none}:root>svg:target{display:block}</style><svg fill="none" viewBox="0 0 39 39" id="github" xmlns="http://www.w3.org/2000/svg"><path d="M19.5 0C8.733 0 0 8.731 0 19.5c0 8.616 5.587 15.925 13.336 18.504.974.18 1.289-.424 1.289-.938v-3.63c-5.424 1.18-6.554-2.301-6.554-2.301-.887-2.254-2.166-2.854-2.166-2.854-1.77-1.21.135-1.184.135-1.184 1.958.136 2.988 2.01 2.988 2.01 1.74 2.98 4.562 2.119 5.675 1.62.174-1.26.68-2.12 1.238-2.606-4.33-.496-8.884-2.168-8.884-9.638 0-2.13.762-3.87 2.009-5.234-.202-.493-.87-2.477.19-5.161 0 0 1.638-.524 5.364 1.998a18.7 18.7 0 014.88-.656c1.657.008 3.326.224 4.885.656 3.723-2.522 5.357-1.998 5.357-1.998 1.061 2.686.394 4.67.192 5.16 1.251 1.366 2.007 3.106 2.007 5.235 0 7.49-4.561 9.139-8.903 9.621.698.605 1.337 1.791 1.337 3.611v5.351c0 .519.312 1.128 1.302.936C33.42 35.42 39 28.112 39 19.5 39 8.731 30.269 0 19.5 0z" fill="url(#apaint0_linear)"/><defs><linearGradient id="apaint0_linear" x1="0" y1="22.73" x2="39" y2="22.73" gradientUnits="userSpaceOnUse"><stop id="astart" stop-color="#C33764"/><stop id="aend" offset="1" stop-color="#1D2671"/></linearGradient></defs></svg><svg fill="none" viewBox="0 0 39 39" id="github-dark" xmlns="http://www.w3.org/2000/svg"><path d="M19.5 0C8.733 0 0 8.731 0 19.5c0 8.616 5.587 15.925 13.336 18.504.974.18 1.289-.424 1.289-.938v-3.63c-5.424 1.18-6.554-2.301-6.554-2.301-.887-2.254-2.166-2.854-2.166-2.854-1.77-1.21.135-1.184.135-1.184 1.958.136 2.988 2.01 2.988 2.01 1.74 2.98 4.562 2.119 5.675 1.62.174-1.26.68-2.12 1.238-2.606-4.33-.496-8.884-2.168-8.884-9.638 0-2.13.762-3.87 2.009-5.234-.202-.493-.87-2.477.19-5.161 0 0 1.638-.524 5.364 1.998a18.7 18.7 0 014.88-.656c1.657.008 3.326.224 4.885.656 3.723-2.522 5.357-1.998 5.357-1.998 1.061 2.686.394 4.67.192 5.16 1.251 1.366 2.007 3.106 2.007 5.235 0 7.49-4.561 9.139-8.903 9.621.698.605 1.337 1.791 1.337 3.611v5.351c0 .519.312 1.128 1.302.936C33.42 35.42 39 28.112 39 19.5 39 8.731 30.269 0 19.5 0z" fill="url(#bpaint0_linear)"/><defs><linearGradient id="bpaint0_linear" x1="0" y1="21.057" x2="39" y2="21.057" gradientUnits="userSpaceOnUse"><stop stop-color="#D9A7C7"/><stop offset="1" stop-color="#FFFCDC"/></linearGradient></defs></svg><svg fill="none" viewBox="0 0 48 39" id="telegram" xmlns="http://www.w3.org/2000/svg"><path fill-rule="evenodd" clip-rule="evenodd" d="M3.235 16.79c12.633-5.505 21.056-9.133 25.271-10.886C40.54.899 43.041.029 44.671 0c.358-.006 1.16.083 1.679.504.438.356.559.836.617 1.174.057.337.13 1.105.072 1.706-.652 6.851-3.474 23.48-4.91 31.154-.607 3.247-1.803 4.336-2.96 4.443-2.517.231-4.428-1.663-6.865-3.261-3.814-2.5-5.969-4.056-9.671-6.496-4.278-2.82-1.505-4.369.933-6.901.638-.663 11.726-10.748 11.94-11.663.027-.114.052-.54-.201-.766-.253-.225-.627-.148-.897-.087-.383.087-6.476 4.114-18.279 12.081-1.729 1.188-3.295 1.766-4.699 1.736-1.547-.033-4.523-.875-6.736-1.594-2.714-.882-4.87-1.349-4.683-2.847.098-.78 1.173-1.578 3.224-2.394z" fill="url(#cpaint0_linear)"/><defs><linearGradient id="cpaint0_linear" x1="0" y1="23.305" x2="47.06" y2="23.305" gradientUnits="userSpaceOnUse"><stop id="cstart" stop-color="#C33764"/><stop id="cend" offset="1" stop-color="#1D2671"/></linearGradient></defs></svg><svg fill="none" viewBox="0 0 48 39" id="telegram-dark" xmlns="http://www.w3.org/2000/svg"><path fill-rule="evenodd" clip-rule="evenodd" d="M3.235 16.79c12.633-5.505 21.056-9.133 25.271-10.886C40.54.899 43.041.029 44.671 0c.358-.006 1.16.083 1.679.504.438.356.559.836.617 1.174.057.337.13 1.105.072 1.706-.652 6.851-3.474 23.48-4.91 31.154-.607 3.247-1.803 4.336-2.96 4.443-2.517.231-4.428-1.663-6.865-3.261-3.814-2.5-5.969-4.056-9.671-6.496-4.278-2.82-1.505-4.369.933-6.901.638-.663 11.726-10.748 11.94-11.663.027-.114.052-.54-.201-.766-.253-.225-.627-.148-.897-.087-.383.087-6.476 4.114-18.279 12.081-1.729 1.188-3.295 1.766-4.699 1.736-1.547-.033-4.523-.875-6.736-1.594-2.714-.882-4.87-1.349-4.683-2.847.098-.78 1.173-1.578 3.224-2.394z" fill="url(#dpaint0_linear)"/><defs><linearGradient id="dpaint0_linear" x1="0" y1="21.589" x2="47.06" y2="21.589" gradientUnits="userSpaceOnUse"><stop stop-color="#D9A7C7"/><stop offset="1" stop-color="#FFFCDC"/></linearGradient></defs></svg><svg fill="none" viewBox="0 0 66 39" id="vk" xmlns="http://www.w3.org/2000/svg"><path fill-rule="evenodd" clip-rule="evenodd" d="M64.447 2.706c.49-1.526 0-2.637-2.167-2.637h-7.2c-1.817 0-2.656.972-3.145 2.013 0 0-3.705 8.882-8.877 14.642-1.678 1.666-2.447 2.22-3.355 2.22-.49 0-1.119-.554-1.119-2.081V2.637C38.584.833 38.025 0 36.487 0H25.164c-1.119 0-1.818.833-1.818 1.665 0 1.735 2.587 2.152 2.866 7.01v10.547c0 2.29-.42 2.707-1.328 2.707-2.446 0-8.388-8.952-11.953-19.153C12.232.763 11.533 0 9.716 0h-7.27C.35 0 0 .972 0 2.012c0 1.874 2.446 11.312 11.393 23.803 5.942 8.535 14.4 13.116 22.019 13.116 4.613 0 5.172-1.041 5.172-2.776V29.7c0-2.082.42-2.429 1.887-2.429 1.049 0 2.936.555 7.2 4.65C52.564 36.779 53.403 39 56.13 39h7.2c2.096 0 3.075-1.04 2.516-3.053-.63-2.013-3.006-4.927-6.081-8.397-1.678-1.943-4.194-4.095-4.963-5.135-1.049-1.388-.77-1.944 0-3.193-.07 0 8.737-12.352 9.646-16.516z" fill="url(#epaint0_linear)"/><defs><linearGradient id="epaint0_linear" x1="0" y1="23.305" x2="66" y2="23.305" gradientUnits="userSpaceOnUse"><stop id="estart" stop-color="#C33764"/><stop id="eend" offset="1" stop-color="#1D2671"/></linearGradient></defs></svg><svg fill="none" viewBox="0 0 66 39" id="vk-dark" xmlns="http://www.w3.org/2000/svg"><path fill-rule="evenodd" clip-rule="evenodd" d="M63.982 2.706c.486-1.526 0-2.637-2.151-2.637h-7.148c-1.804 0-2.637.972-3.123 2.013 0 0-3.677 8.882-8.813 14.642-1.665 1.666-2.428 2.22-3.33 2.22-.486 0-1.111-.554-1.111-2.081V2.637C38.306.833 37.751 0 36.224 0H24.982c-1.11 0-1.804.833-1.804 1.665 0 1.735 2.568 2.152 2.845 7.01v10.547c0 2.29-.416 2.707-1.318 2.707-2.43 0-8.328-8.952-11.867-19.153C12.144.763 11.45 0 9.646 0H2.429C.347 0 0 .972 0 2.012c0 1.874 2.429 11.312 11.311 23.803C17.21 34.35 25.607 38.93 33.171 38.93c4.58 0 5.135-1.041 5.135-2.776V29.7c0-2.082.416-2.429 1.874-2.429 1.04 0 2.914.555 7.147 4.65C52.185 36.779 53.017 39 55.724 39h7.148c2.082 0 3.053-1.04 2.498-3.053-.624-2.013-2.984-4.927-6.037-8.397-1.666-1.943-4.164-4.095-4.927-5.135-1.041-1.388-.764-1.944 0-3.193-.07 0 8.674-12.352 9.576-16.516z" fill="url(#fpaint0_linear)"/><defs><linearGradient id="fpaint0_linear" x1="0" y1="21.589" x2="65.524" y2="21.589" gradientUnits="userSpaceOnUse"><stop stop-color="#D9A7C7"/><stop offset="1" stop-color="#FFFCDC"/></linearGradient></defs></svg></svg>